# xmcd CD database file
#
# Track frame offsets:
#	150
#	27906
#	52877
#	78562
#	102019
#	116916
#	142322
#	162243
#	182265
#	200909
#	226299
#	261811
#	282865
#	307690
#
# Disc length: 4344 seconds
#
# Revision: 0
# Processed by: cddbd v1.5.2PL0 Copyright (c) Steve Scherf et al.
# Submitted via: CDex 1.70beta2
#
DISCID=bc10f60e
DTITLE=Various Artist - Jazz Magazine Nr. 53
DYEAR=2007
DGENRE=Jazz
TTITLE0=Pierluigi Balducci Small Ensemble - Del cavaliere errante
TTITLE1=Gianmario Liuni - Dark clouds
TTITLE2=Actis Band - Noche de fraga
TTITLE3=Insectet - Walking in the sand
TTITLE4=Roscoe Mitchell - VI
TTITLE5=Walter Beasley - On the black side
TTITLE6=Mario Biondi - Non trouble on the mountain
TTITLE7=Joe Bonamassa - Torn down
TTITLE8=Antonio Restucci - Despues de la tierra
TTITLE9=Gabriele Coen Atlante Sonoro - Alhambra
TTITLE10=Pierre Favre Ensemble - Albatros
TTITLE11=Coriine Chatel Quintett - How high the moon
TTITLE12=Prophetz Of Time And Space - Boo jee woo gee
TTITLE13=Louis Clavis - Palabre
EXTD=YEAR: 2007
EXTT0=
EXTT1=
EXTT2=
EXTT3=
EXTT4=
EXTT5=
EXTT6=
EXTT7=
EXTT8=
EXTT9=
EXTT10=
EXTT11=
EXTT12=
EXTT13=
PLAYORDER=
